<svg width="64" height="64" viewBox="0 0 64 64" fill="none" xmlns="http://www.w3.org/2000/svg">
<path d="M53.9775 1H10.0225C8.94382 1 8 1.94348 8 3.02174V60.9783C8 62.0565 8.80899 63 9.88764 63H42.9213L56 49.9261V3.02174C56 1.94348 55.191 1 53.9775 1ZM53.9775 1C54.1124 1 53.9775 1 53.9775 1Z" stroke="#212121" stroke-linecap="round" stroke-linejoin="round"/>
<path d="M56 49.5H43C42.4667 49.5 42 49.9667 42 50.5V54.6667" stroke="#212121" stroke-linecap="round" stroke-linejoin="round"/>
<circle cx="24" cy="16" r="9.5" fill="#8280FE" stroke="#212121"/>
<path d="M31 22C30.6861 21.4825 30.5684 20.5526 29.8386 20.1968L26.9271 19C26.0088 19.4098 25.0164 19.6137 24.0157 19.5984C23.0045 19.6183 22.0009 19.4143 21.0729 19L18.1614 20.1968C17.4316 20.5445 17.3061 21.4825 17 22" fill="white"/>
<path d="M31 22C30.6861 21.4825 30.5684 20.5526 29.8386 20.1968L26.9271 19C26.0088 19.4098 25.0164 19.6137 24.0157 19.5984C23.0045 19.6183 22.0009 19.4143 21.0729 19L18.1614 20.1968C17.4316 20.5445 17.3061 21.4825 17 22L18 23L20 24.5L24 25.5L29 24L31 22Z" fill="white"/>
<path d="M31 22C30.6861 21.4825 30.5684 20.5526 29.8386 20.1968L26.9271 19C26.0088 19.4098 25.0164 19.6137 24.0157 19.5984C23.0045 19.6183 22.0009 19.4143 21.0729 19L18.1614 20.1968C17.4316 20.5445 17.3061 21.4825 17 22" stroke="#212121" stroke-linecap="round" stroke-linejoin="round"/>
<path d="M26.2548 17C27.8801 15.8554 27.7309 15.1255 27.9194 13.4583C28.0873 12.5537 27.9915 11.6166 27.6446 10.7709C27.2476 10.0284 26.5953 9.47596 25.823 9.22809C24.9645 8.92397 24.0355 8.92397 23.177 9.22809C22.4047 9.47596 21.7524 10.0284 21.3554 10.7709C21.0085 11.6166 20.9127 12.5537 21.0806 13.4583C21.2769 15.1172 21.1199 15.8554 22.7452 17" fill="white"/>
<path d="M26.2548 17C27.8801 15.8554 27.7309 15.1255 27.9194 13.4583C28.0873 12.5537 27.9915 11.6166 27.6446 10.7709C27.2476 10.0284 26.5953 9.47596 25.823 9.22809C24.9645 8.92397 24.0355 8.92397 23.177 9.22809C22.4047 9.47596 21.7524 10.0284 21.3554 10.7709C21.0085 11.6166 20.9127 12.5537 21.0806 13.4583C21.2769 15.1172 21.1199 15.8554 22.7452 17" stroke="#212121" stroke-linecap="round" stroke-linejoin="round"/>
<circle cx="24" cy="16" r="9.5" stroke="#212121"/>
<path d="M14 32H50" stroke="#212121" stroke-linecap="round" stroke-linejoin="round"/>
<path d="M14 40H50" stroke="#212121" stroke-linecap="round" stroke-linejoin="round"/>
<path d="M14 48H36" stroke="#212121" stroke-linecap="round" stroke-linejoin="round"/>
<path d="M38 8H50" stroke="#212121" stroke-linecap="round" stroke-linejoin="round"/>
<path d="M38 16H50" stroke="#212121" stroke-linecap="round" stroke-linejoin="round"/>
<path d="M38 24H50" stroke="#212121" stroke-linecap="round" stroke-linejoin="round"/>
</svg>
