<svg width="64" height="64" viewBox="0 0 64 64" fill="none" xmlns="http://www.w3.org/2000/svg">
<path d="M1 14H63M63 47H1" stroke="#212121" stroke-linecap="round" stroke-linejoin="round"/>
<path d="M24 58V58.76C23.9993 59.5554 23.6828 60.3179 23.12 60.88L21 63H43L40.88 60.88C40.3172 60.3179 40.0007 59.5554 40 58.76V54" stroke="#212121" stroke-linecap="round" stroke-linejoin="round"/>
<rect x="0.5" y="9.5" width="63" height="44" rx="1.5" stroke="#212121"/>
<circle cx="31" cy="5" r="1.5" stroke="#212121"/>
<circle cx="31" cy="5" r="4.5" stroke="#212121"/>
<path d="M35 7L37 9M27 7L25 9" stroke="#212121" stroke-linecap="round"/>
<path d="M37 32L42 34C42 34 44.5 35.5 45 37V47H42H19V37C19.7307 35.7628 20.7628 34.7307 22 34L27 32C28.577 32.6838 30.2813 33.0247 32 33C33.7187 33.0247 35.423 32.6838 37 32Z" fill="#8280FE" stroke="#212121" stroke-linecap="round" stroke-linejoin="round"/>
<path d="M35.0005 28.9999C37.7905 27.1399 37.5305 25.9999 37.8605 23.2499C38.1488 21.7792 37.9849 20.2557 37.3905 18.8799C36.7067 17.6777 35.5913 16.7804 34.2705 16.3699C32.7974 15.8767 31.2036 15.8767 29.7305 16.3699C28.4097 16.7804 27.2943 17.6777 26.6105 18.8799C26.0161 20.2557 25.8522 21.7792 26.1405 23.2499C26.4705 25.9499 26.2105 27.1399 29.0005 28.9999" stroke="#212121" stroke-linecap="round" stroke-linejoin="round"/>
<path d="M36 32.5V34L35 36M35 36L38 39V36M35 36C34 36.6667 32 39 32 43" stroke="#212121" stroke-linecap="round" stroke-linejoin="round"/>
<path d="M28 32.5V34L29 36M29 36L26 39V36M29 36C30 36.6667 32 39 32 43" stroke="#212121" stroke-linecap="round" stroke-linejoin="round"/>
</svg>
