<svg width="64" height="64" viewBox="0 0 64 64" fill="none" xmlns="http://www.w3.org/2000/svg">
<g clip-path="url(#clip0_309_1381)">
<path d="M25 26V24C25 24 28.05 21 34.47 21C40.89 21 44 24 44 24V26" stroke="#212121" stroke-linecap="round" stroke-linejoin="round"/>
<path d="M13 44V61C13 61.5304 13.2107 62.0391 13.5858 62.4142C13.9609 62.7893 14.4696 63 15 63H55C55.5304 63 56.0391 62.7893 56.4142 62.4142C56.7893 62.0391 57 61.5304 57 61V51" stroke="#212121" stroke-linecap="round" stroke-linejoin="round"/>
<path d="M37 45H33C32.4477 45 32 45.4477 32 46V51C32 51.5523 32.4477 52 33 52H37C37.5523 52 38 51.5523 38 51V46C38 45.4477 37.5523 45 37 45Z" stroke="#212121" stroke-linecap="round" stroke-linejoin="round"/>
<path d="M38 48C44.2364 47.8026 50.4328 46.9274 56.48 45.39C56.9136 45.2828 57.2988 45.0335 57.5743 44.6819C57.8498 44.3304 57.9997 43.8967 58 43.45V31C58 30.4696 57.7893 29.9609 57.4142 29.5858C57.0391 29.2107 56.5304 29 56 29H14C13.4696 29 12.9609 29.2107 12.5858 29.5858C12.2107 29.9609 12 30.4696 12 31V42.54C11.9995 42.966 12.1351 43.3809 12.3869 43.7245C12.6387 44.068 12.9937 44.3222 13.4 44.45C16.72 45.45 25.28 47.94 32 48" stroke="#212121" stroke-linecap="round" stroke-linejoin="round"/>
<path d="M51 9V3.23C51 2.63857 50.7651 2.07136 50.3468 1.65315C49.9286 1.23495 49.3614 1 48.77 1H7.23C6.63857 1 6.07136 1.23495 5.65315 1.65315C5.23495 2.07136 5 2.63857 5 3.23V23.5" stroke="#212121" stroke-linecap="round" stroke-linejoin="round"/>
<path d="M8.5 5C8.77614 5 9 4.77614 9 4.5C9 4.22386 8.77614 4 8.5 4C8.22386 4 8 4.22386 8 4.5C8 4.77614 8.22386 5 8.5 5Z" fill="#212121" stroke="#212121" stroke-miterlimit="10"/>
<path d="M11.5 5C11.7761 5 12 4.77614 12 4.5C12 4.22386 11.7761 4 11.5 4C11.2239 4 11 4.22386 11 4.5C11 4.77614 11.2239 5 11.5 5Z" fill="#212121" stroke="#212121" stroke-miterlimit="10"/>
<path d="M14.5 5C14.7761 5 15 4.77614 15 4.5C15 4.22386 14.7761 4 14.5 4C14.2239 4 14 4.22386 14 4.5C14 4.77614 14.2239 5 14.5 5Z" fill="#212121" stroke="#212121" stroke-miterlimit="10"/>
<path d="M5 7.16016H51" stroke="#212121" stroke-linecap="round" stroke-linejoin="round"/>
<path d="M18 11L20 13L18 15" stroke="#212121" stroke-linecap="round" stroke-linejoin="round"/>
<path d="M11 11L9 13L11 15" stroke="#212121" stroke-linecap="round" stroke-linejoin="round"/>
<path d="M15 11L14 15" stroke="#212121" stroke-linecap="round" stroke-linejoin="round"/>
<path fill-rule="evenodd" clip-rule="evenodd" d="M43.0047 23.0024C44.1768 21.3497 45.8168 20.5018 47.0235 20.2281C48.6447 19.8603 50.3457 20.1516 51.7521 21.0379C53.1586 21.9242 54.1554 23.3329 54.5232 24.9541C54.7483 25.9465 54.6978 27.4272 54.0459 29H56.4995L57.4995 29.5L58.0191 30.5L58.0197 35.0002C58.0197 35.0002 61.8541 31.2813 61.8265 31.1596C61.7897 30.9975 61.69 30.8566 61.5494 30.768L60.7963 30.2935C60.6904 30.2274 60.6066 30.1313 60.5557 30.0174C60.5047 29.9034 60.4889 29.7768 60.5104 29.6539L61.1149 26.108C61.1361 25.9858 61.1931 25.8726 61.2787 25.7828C61.3643 25.693 61.4747 25.6306 61.5958 25.6035L62.4603 25.4074C62.6217 25.3703 62.7618 25.2708 62.8501 25.1307C62.9384 24.9906 62.9676 24.8213 62.9315 24.6597L62.0979 20.9856C62.0608 20.8242 61.9614 20.6841 61.8213 20.5958C61.6812 20.5075 61.5118 20.4782 61.3502 20.5144L60.4857 20.7105C60.3648 20.7384 60.2383 20.7297 60.1224 20.6856C60.0064 20.6416 59.9061 20.564 59.8342 20.4629L57.7587 17.5251C57.6863 17.4234 57.646 17.3024 57.6427 17.1776C57.6395 17.0529 57.6737 16.93 57.7407 16.8247L58.2153 16.0717C58.3039 15.931 58.333 15.7609 58.2963 15.5988C58.2595 15.4367 58.1598 15.2958 58.0191 15.2072L54.8373 13.2021C54.6967 13.1134 54.5266 13.0843 54.3644 13.1211C54.2023 13.1579 54.0614 13.2576 53.9728 13.3982L53.4983 14.1512C53.4323 14.2572 53.3361 14.341 53.2222 14.3919C53.1082 14.4429 52.9817 14.4587 52.8587 14.4372L49.3129 13.8327C49.192 13.8108 49.0803 13.7538 48.9915 13.6689C48.9028 13.584 48.8409 13.4749 48.8137 13.3551L48.6175 12.4906C48.5996 12.4099 48.5658 12.3335 48.5181 12.2658C48.4705 12.1982 48.4099 12.1406 48.3399 12.0965C48.2699 12.0524 48.1918 12.0226 48.1102 12.0088C48.0286 11.995 47.9451 11.9975 47.8645 12.0161L44.1957 12.853C44.0343 12.8901 43.8942 12.9896 43.8059 13.1297C43.7176 13.2698 43.6884 13.4391 43.7245 13.6007L43.9206 14.4652C43.9485 14.5861 43.9398 14.7126 43.8958 14.8286C43.8517 14.9446 43.7742 15.0449 43.673 15.1168L40.7352 17.1922C40.6326 17.2652 40.5105 17.3057 40.3846 17.3083C40.2587 17.3109 40.135 17.2755 40.0295 17.2068L39.2765 16.7323C39.1358 16.6437 38.9657 16.6145 38.8036 16.6513C38.6415 16.6881 38.5006 16.7878 38.412 16.9284L35.5 20.9999H38L41 21.9999L43 22.9999L43.0047 23.0024Z" fill="#8280FE"/>
<path d="M35.6962 20.4873L36.7711 18.7113L38.1078 16.5901C38.1964 16.4494 38.3373 16.3497 38.4994 16.3129C38.6615 16.2762 38.8316 16.3053 38.9723 16.3939L39.7253 16.8685C39.8308 16.9372 39.9545 16.9725 40.0804 16.9699C40.2063 16.9673 40.3284 16.9268 40.431 16.8538L43.3688 14.7784C43.47 14.7065 43.5475 14.6062 43.5916 14.4902C43.6356 14.3742 43.6443 14.2477 43.6164 14.1268L43.4203 13.2623C43.3842 13.1007 43.4134 12.9314 43.5017 12.7913C43.59 12.6512 43.7301 12.5517 43.8915 12.5146L47.5603 11.6777C47.6409 11.6591 47.7244 11.6566 47.806 11.6704C47.8876 11.6842 47.9657 11.714 48.0357 11.7581C48.1057 11.8023 48.1662 11.8598 48.2139 11.9274C48.2616 11.9951 48.2954 12.0715 48.3133 12.1523L48.5095 13.0168C48.5367 13.1365 48.5986 13.2456 48.6873 13.3305C48.7761 13.4155 48.8878 13.4724 49.0087 13.4944L52.5545 14.0988C52.6775 14.1203 52.804 14.1045 52.918 14.0536C53.0319 14.0026 53.1281 13.9188 53.1941 13.8129L53.6686 13.0598C53.7572 12.9192 53.8981 12.8195 54.0602 12.7827C54.2224 12.7459 54.3925 12.7751 54.5331 12.8637L57.715 14.8688C57.8556 14.9574 57.9553 15.0983 57.9921 15.2604C58.0288 15.4225 57.9997 15.5926 57.9111 15.7333L57.4365 16.4863C57.3695 16.5916 57.3353 16.7145 57.3385 16.8393C57.3418 16.964 57.3821 17.085 57.4545 17.1867L59.53 20.1245C59.6019 20.2257 59.7022 20.3032 59.8182 20.3473C59.9341 20.3913 60.0606 20.4 60.1815 20.3721L61.046 20.176C61.2076 20.1399 61.377 20.1691 61.5171 20.2574C61.6572 20.3457 61.7566 20.4858 61.7937 20.6472L62.6273 24.3213C62.6634 24.4829 62.6342 24.6522 62.5459 24.7923C62.4576 24.9324 62.3175 25.0319 62.1561 25.069L61.2916 25.2652C61.1705 25.2922 61.0601 25.3546 60.9745 25.4444C60.8889 25.5342 60.8319 25.6474 60.8107 25.7697L60.2062 29.3155C60.1847 29.4385 60.2005 29.565 60.2515 29.679C60.3024 29.7929 60.3862 29.8891 60.4921 29.9551L61.2452 30.4296C61.3858 30.5183 61.4855 30.6591 61.5223 30.8213C61.5591 30.9834 61.5299 31.1535 61.4413 31.2941L57.9999 35.0001" stroke="#212121" stroke-linecap="round" stroke-linejoin="round"/>
<path d="M53.4099 29.3448C54.2962 27.9383 54.5875 26.2374 54.2197 24.6162C53.8519 22.9949 52.8551 21.5862 51.4486 20.6999C50.0422 19.8136 48.3412 19.5223 46.72 19.8901C45.0987 20.2579 43.69 21.2547 42.8037 22.6611" stroke="#212121" stroke-linecap="round" stroke-linejoin="round"/>
<path d="M33.3 21.0293L31.19 15.0293L1 25.6293L13 59.7193" stroke="#212121" stroke-linecap="round" stroke-linejoin="round"/>
</g>
<defs>
<clipPath id="clip0_309_1381">
<rect width="64" height="64" fill="white"/>
</clipPath>
</defs>
</svg>
