<svg width="64" height="64" viewBox="0 0 64 64" fill="none" xmlns="http://www.w3.org/2000/svg">
<path d="M61.9389 28.8397C61.9793 28.6798 62 28.5173 62 28.3526C62 25.9326 57.5228 23.9707 52 23.9707C46.4772 23.9707 42 25.9326 42 28.3526C42 28.5173 42.0207 28.6798 42.0611 28.8397H42V33.334C42 33.4596 42.0088 33.5844 42.026 33.7082H42V57.6021C42 60.4997 46.4867 62.5312 52.004 62.5312C57.5212 62.5312 62 60.4997 62 57.6021V33.7082H61.974C61.9912 33.5844 62 33.4596 62 33.334V28.8397H61.9389Z" fill="#8280FE"/>
<path d="M12 50.2474C17.5228 50.2474 22 48.2477 22 45.7809C22 43.3142 17.5228 41.3145 12 41.3145C6.47715 41.3145 2 43.3142 2 45.7809C2 48.2477 6.47715 50.2474 12 50.2474Z" stroke="#212121" stroke-linejoin="round"/>
<path d="M22 51.2402V57.1061C22 59.9576 17.5212 62.1583 12.004 62.1583C6.48672 62.1583 2 59.9576 2 57.1061V51.2402" stroke="#212121" stroke-linecap="round" stroke-linejoin="round"/>
<path d="M22 46.2773V50.8583C22 53.7549 17.5212 56.2028 12.004 56.2028C6.48672 56.2028 2 53.7549 2 50.8583V46.2773" stroke="#212121" stroke-linecap="round" stroke-linejoin="round"/>
<path d="M32 44.3665C37.5228 44.3665 42 42.3668 42 39.9001C42 37.4333 37.5228 35.4336 32 35.4336C26.4772 35.4336 22 37.4333 22 39.9001C22 42.3668 26.4772 44.3665 32 44.3665Z" stroke="#212121" stroke-linejoin="round"/>
<path d="M42 50.3223V57.2086C42 60.1621 37.5212 62.2328 32.004 62.2328C26.4867 62.2328 22 60.1621 22 57.2086V50.3223" stroke="#212121" stroke-linecap="round" stroke-linejoin="round"/>
<path d="M42 45.3594V51.2252C42 54.0768 37.5212 56.2774 32.004 56.2774C26.4867 56.2774 22 54.0768 22 51.2252V45.3594" stroke="#212121" stroke-linecap="round" stroke-linejoin="round"/>
<path d="M42 40.3965V44.9775C42 47.874 37.5212 50.322 32.004 50.322C26.4867 50.322 22 47.874 22 44.9775V40.3965" stroke="#212121" stroke-linecap="round" stroke-linejoin="round"/>
<path d="M52 32.5306C57.5228 32.5306 62 30.5309 62 28.0641C62 25.5974 57.5228 23.5977 52 23.5977C46.4772 23.5977 42 25.5974 42 28.0641C42 30.5309 46.4772 32.5306 52 32.5306Z" stroke="#212121" stroke-linejoin="round"/>
<path d="M62 38.4863V45.3726C62 48.3262 57.5212 50.3969 52.004 50.3969C46.4867 50.3969 42 48.3262 42 45.3726V38.4863" stroke="#212121" stroke-linecap="round" stroke-linejoin="round"/>
<path d="M62 44.7383V51.6246C62 54.5782 57.5212 56.6489 52.004 56.6489C46.4867 56.6489 42 54.5782 42 51.6246V44.7383" stroke="#212121" stroke-linecap="round" stroke-linejoin="round"/>
<path d="M62 50.9922V57.8785C62 60.8321 57.5212 62.9028 52.004 62.9028C46.4867 62.9028 42 60.8321 42 57.8785V50.9922" stroke="#212121" stroke-linecap="round" stroke-linejoin="round"/>
<path d="M62 33.5234V39.3893C62 42.2408 57.5212 44.4415 52.004 44.4415C46.4867 44.4415 42 42.2408 42 39.3893V33.5234" stroke="#212121" stroke-linecap="round" stroke-linejoin="round"/>
<path d="M62 28.5605V33.1415C62 36.0381 57.5212 38.486 52.004 38.486C46.4867 38.486 42 36.0381 42 33.1415V28.5605" stroke="#212121" stroke-linecap="round" stroke-linejoin="round"/>
<path d="M7 29C6.72386 29 6.5 29.2239 6.5 29.5C6.5 29.7761 6.72386 30 7 30V29ZM56.9833 0.871783C56.9125 0.604874 56.6387 0.445907 56.3718 0.516719L52.0223 1.67068C51.7553 1.74149 51.5964 2.01526 51.6672 2.28217C51.738 2.54908 52.0118 2.70805 52.2787 2.63724L56.1449 1.6115L57.1707 5.47774C57.2415 5.74465 57.5153 5.90362 57.7822 5.83281C58.0491 5.762 58.208 5.48822 58.1372 5.22131L56.9833 0.871783ZM7 30C15.6126 30 25.8232 26.7125 34.9971 21.4972C44.1715 16.2816 52.3744 9.10096 56.9324 1.25107L56.0676 0.748932C51.6256 8.39904 43.5785 15.4684 34.5029 20.6278C25.4268 25.7875 15.3874 29 7 29V30Z" fill="#212121"/>
</svg>
