<svg width="64" height="64" viewBox="0 0 64 64" fill="none" xmlns="http://www.w3.org/2000/svg">
<path d="M26 10H21C20.4477 10 20 10.4477 20 11V16C20 16.5523 20.4477 17 21 17H26C26.5523 17 27 16.5523 27 16V11C27 10.4477 26.5523 10 26 10Z" fill="#8280FE"/>
<path d="M26 24H21C20.4477 24 20 24.4477 20 25V30C20 30.5523 20.4477 31 21 31H26C26.5523 31 27 30.5523 27 30V25C27 24.4477 26.5523 24 26 24Z" fill="#8280FE"/>
<path d="M54.9932 20.6787C56.0656 20.6787 57.094 21.0978 57.8523 21.8439C58.6106 22.59 59.0366 23.6019 59.0366 24.657V53.1413" stroke="#212121" stroke-linecap="round" stroke-linejoin="round"/>
<path d="M5.04395 53.1415V24.6174C5.04395 23.5623 5.46995 22.5504 6.22825 21.8044C6.98655 21.0583 8.01502 20.6392 9.08742 20.6392" stroke="#212121" stroke-linecap="round" stroke-linejoin="round"/>
<path d="M57.0021 61.9997H6.99782C6.21018 61.9997 5.43024 61.8471 4.70255 61.5505C3.97487 61.254 3.31367 60.8193 2.75672 60.2713C2.19977 59.7234 1.75798 59.0728 1.45656 58.3569C1.15514 57.6409 1 56.8736 1 56.0986H25.0048V58.0215H38.9952V56.0986H63C63 56.8736 62.8448 57.6409 62.5434 58.3569C62.242 59.0728 61.8002 59.7234 61.2432 60.2713C60.6863 60.8193 60.0251 61.254 59.2974 61.5505C58.5697 61.8471 57.7898 61.9997 57.0021 61.9997V61.9997Z" stroke="#212121" stroke-linecap="round" stroke-linejoin="round"/>
<path d="M52.0015 49.2033V2.96265C52.0015 2.7038 51.9495 2.4475 51.8484 2.20852C51.7473 1.96954 51.5991 1.75259 51.4125 1.57017C51.2258 1.38775 51.0043 1.24346 50.7607 1.14562C50.5172 1.04777 50.2563 0.998296 49.9932 1.00004H14.0063C13.7432 0.998296 13.4824 1.04777 13.2388 1.14562C12.9952 1.24346 12.7737 1.38775 12.5871 1.57017C12.4004 1.75259 12.2523 1.96954 12.1512 2.20852C12.0501 2.4475 11.998 2.7038 11.998 2.96265V49.2033" stroke="#212121" stroke-linecap="round" stroke-linejoin="round"/>
<path d="M26 10H20V17H27V14" stroke="#212121" stroke-linecap="round" stroke-linejoin="round"/>
<path d="M26 24H20V31H27V28" stroke="#212121" stroke-linecap="round" stroke-linejoin="round"/>
<path d="M22 13.4965L23.711 14.9999L28.5 10" stroke="#212121" stroke-linecap="round" stroke-linejoin="round"/>
<path d="M22 27.4965L23.711 28.9999L28.5 24" stroke="#212121" stroke-linecap="round" stroke-linejoin="round"/>
<path d="M32.998 13.7966H45.0072" stroke="#212121" stroke-linecap="round" stroke-linejoin="round"/>
<path d="M27 38H20V45H27V38Z" stroke="#212121" stroke-linecap="round" stroke-linejoin="round"/>
<path d="M32.998 41.3398H45.0072" stroke="#212121" stroke-linecap="round" stroke-linejoin="round"/>
<path d="M32.998 27.5615H45.0072" stroke="#212121" stroke-linecap="round" stroke-linejoin="round"/>
</svg>
