<svg width="105" height="32" viewBox="0 0 105 32" fill="none" xmlns="http://www.w3.org/2000/svg">
<path d="M4.69128 4.60846V23.9418H0V4.60846H4.69128Z" fill="#212121"/>
<path d="M13.0918 23.9418H8.52393V9.21164H12.0733L12.5979 11.0529C13.2564 10.3778 13.9971 9.84586 14.8201 9.45714C15.6432 9.06843 16.5382 8.87407 17.5053 8.87407C19.1719 8.87407 20.4476 9.32416 21.3324 10.2243C22.2171 11.1245 22.6595 12.4441 22.6595 14.1831V23.9418H18.0917V14.6434C18.0917 13.9273 17.9168 13.3647 17.567 12.9556C17.2378 12.5259 16.744 12.3111 16.0855 12.3111C15.5917 12.3111 15.067 12.4543 14.5115 12.7407C13.9765 13.0272 13.5033 13.4056 13.0918 13.8762V23.9418Z" fill="#212121"/>
<path d="M35.3821 12.9862C34.8266 12.7203 34.2401 12.5157 33.6229 12.3725C33.0056 12.2088 32.4089 12.127 31.8328 12.127C31.2978 12.127 30.8657 12.219 30.5365 12.4032C30.2073 12.5873 30.0427 12.843 30.0427 13.1704C30.0427 13.5182 30.197 13.8148 30.5056 14.0603C30.8348 14.2854 31.4727 14.5309 32.4192 14.7968L33.3451 15.073C34.5796 15.4413 35.5158 15.9834 36.1537 16.6995C36.7915 17.3951 37.1105 18.2952 37.1105 19.4C37.1105 20.1365 36.9561 20.8116 36.6475 21.4254C36.3389 22.0187 35.8965 22.5302 35.3204 22.9598C34.7648 23.3894 34.0858 23.7168 33.2834 23.9418C32.5015 24.1668 31.627 24.2794 30.66 24.2794C29.6106 24.2794 28.6744 24.1873 27.8514 24.0032C27.0489 23.819 26.2979 23.5531 25.5983 23.2053L26.5859 19.9217C27.1826 20.2286 27.7999 20.4843 28.4378 20.6889C29.0962 20.873 29.7649 20.9651 30.4439 20.9651C31.2258 20.9651 31.771 20.8526 32.0797 20.6275C32.4089 20.4025 32.5735 20.1365 32.5735 19.8296C32.5735 19.6455 32.5324 19.4921 32.45 19.3693C32.3883 19.2261 32.2649 19.0931 32.0797 18.9704C31.8945 18.8476 31.627 18.7351 31.2772 18.6328C30.948 18.5101 30.5159 18.3668 29.981 18.2032L29.0242 17.927C27.8102 17.5383 26.9254 17.0063 26.3699 16.3312C25.8144 15.6356 25.5366 14.7048 25.5366 13.5386C25.5366 12.8635 25.6703 12.2497 25.9378 11.6974C26.2053 11.1245 26.5859 10.6335 27.0798 10.2243C27.5942 9.79471 28.2114 9.46737 28.9316 9.24233C29.6723 8.99683 30.5159 8.87407 31.4624 8.87407C32.4089 8.87407 33.2834 8.96614 34.0858 9.15026C34.9089 9.31393 35.6496 9.54921 36.308 9.85608L35.3821 12.9862Z" fill="#212121"/>
<path d="M49.4046 23.2974C49.0342 23.6042 48.5301 23.8395 47.8923 24.0032C47.2544 24.1873 46.6371 24.2794 46.0404 24.2794C44.9499 24.2794 43.9829 24.0952 43.1393 23.727C42.2956 23.3383 41.5755 22.8063 40.9788 22.1312C40.4027 21.4561 39.9603 20.648 39.6517 19.7069C39.343 18.7658 39.1887 17.7224 39.1887 16.5767C39.1887 15.472 39.343 14.449 39.6517 13.5079C39.9603 12.5668 40.413 11.7587 41.0097 11.0836C41.6064 10.388 42.3265 9.84586 43.1701 9.45714C44.0343 9.06843 45.0117 8.87407 46.1022 8.87407C46.8635 8.87407 47.6145 9.00705 48.3552 9.27302C49.096 9.51852 49.7235 9.897 50.2379 10.4085L50.4848 9.21164H53.9724V31H49.4046V23.2974ZM49.4046 13.3545C49.1783 13.0681 48.8593 12.8021 48.4478 12.5566C48.0569 12.2907 47.5631 12.1577 46.9664 12.1577C46.5343 12.1577 46.1227 12.2395 45.7318 12.4032C45.3614 12.5668 45.0219 12.8226 44.7133 13.1704C44.4252 13.5182 44.1989 13.9683 44.0343 14.5206C43.8697 15.0526 43.7874 15.7072 43.7874 16.4847C43.7874 17.9781 44.1063 19.1034 44.7442 19.8603C45.4026 20.5968 46.1845 20.9651 47.0898 20.9651C47.6248 20.9651 48.0877 20.873 48.4787 20.6889C48.8696 20.4843 49.1783 20.249 49.4046 19.9831V13.3545Z" fill="#212121"/>
<path d="M67.036 9.21164H71.6038V23.9418H68.2396L67.7767 22.346H67.6532C67.4475 22.5506 67.2006 22.7654 66.9125 22.9905C66.6244 23.2155 66.2747 23.4303 65.8631 23.6349C65.4722 23.819 65.0195 23.9725 64.5051 24.0952C63.9907 24.218 63.4043 24.2794 62.7459 24.2794C61.141 24.2794 59.8859 23.8395 58.9805 22.9598C58.0752 22.0801 57.6225 20.781 57.6225 19.0624V9.21164H62.1904V18.6942C62.1904 19.4511 62.3755 20.0138 62.7459 20.382C63.1368 20.7298 63.6307 20.9037 64.2274 20.9037C64.9475 20.9037 65.5339 20.7605 65.9866 20.4741C66.4598 20.1672 66.8096 19.8501 67.036 19.5227V9.21164Z" fill="#212121"/>
<path d="M75.4721 10.5005C76.3157 10.0095 77.2622 9.62081 78.3116 9.33439C79.3815 9.02751 80.472 8.87407 81.5831 8.87407C83.4144 8.87407 84.8855 9.31393 85.9966 10.1937C87.1077 11.0734 87.6633 12.4748 87.6633 14.3979V23.9418H84.1757L83.7745 22.4688H83.651C83.2395 23.0007 82.6634 23.4406 81.9226 23.7884C81.2025 24.1157 80.3486 24.2794 79.3609 24.2794C78.5173 24.2794 77.7766 24.1566 77.1388 23.9111C76.5215 23.6656 76.0071 23.3383 75.5956 22.9291C75.1841 22.5199 74.8651 22.0392 74.6388 21.4868C74.433 20.9139 74.3302 20.3104 74.3302 19.6762C74.3302 18.8169 74.5153 18.0804 74.8857 17.4667C75.2766 16.8529 75.791 16.3517 76.4289 15.963C77.0873 15.5743 77.8486 15.2878 78.7128 15.1037C79.5976 14.9196 80.5338 14.8275 81.5214 14.8275H83.0646V14.0296C83.0646 13.4772 82.8691 13.0578 82.4782 12.7714C82.0872 12.4646 81.5317 12.3111 80.8115 12.3111C80.1943 12.3111 79.5873 12.4032 78.9906 12.5873C78.3939 12.7714 77.7355 13.0681 77.0153 13.4772L75.4721 10.5005ZM83.0955 17.5894L82.077 17.6201C81.5008 17.6406 81.0173 17.7019 80.6264 17.8042C80.2354 17.9065 79.9165 18.0395 79.6696 18.2032C79.4433 18.3464 79.2786 18.5305 79.1758 18.7556C79.0729 18.9601 79.0214 19.175 79.0214 19.4C79.0214 20.0342 79.2066 20.4741 79.577 20.7196C79.9679 20.9446 80.4103 21.0571 80.9041 21.0571C81.398 21.0571 81.8403 20.9139 82.2313 20.6275C82.6428 20.3411 82.9308 20.024 83.0955 19.6762V17.5894Z" fill="#212121"/>
<path d="M100.432 2H105V23.9418H101.852L101.389 22.346H101.235C100.947 22.7961 100.442 23.236 99.7223 23.6656C99.0227 24.0748 98.0968 24.2794 96.9446 24.2794C95.9775 24.2794 95.0825 24.1055 94.2594 23.7577C93.4364 23.3894 92.7265 22.878 92.1298 22.2233C91.5331 21.5481 91.0599 20.74 90.7101 19.7989C90.3809 18.8374 90.2163 17.7633 90.2163 16.5767C90.2163 15.4106 90.3706 14.357 90.6792 13.4159C90.9879 12.4543 91.4303 11.6462 92.0064 10.9915C92.6031 10.3164 93.3335 9.79471 94.1977 9.42645C95.0619 9.0582 96.0392 8.87407 97.1298 8.87407C97.8088 8.87407 98.4466 8.97637 99.0433 9.18095C99.6606 9.36508 100.124 9.60035 100.432 9.88677V2ZM100.432 13.2011C100.247 12.9556 99.9589 12.7203 99.568 12.4952C99.1771 12.2702 98.745 12.1577 98.2717 12.1577C97.7985 12.1577 97.3561 12.2395 96.9446 12.4032C96.5331 12.5464 96.1627 12.7919 95.8335 13.1397C95.5248 13.4875 95.2779 13.9376 95.0928 14.4899C94.9076 15.0219 94.815 15.6868 94.815 16.4847C94.815 18.019 95.1133 19.1545 95.71 19.891C96.3273 20.6071 97.1195 20.9651 98.0865 20.9651C98.6832 20.9651 99.1771 20.8116 99.568 20.5048C99.9795 20.1979 100.268 19.8705 100.432 19.5227V13.2011Z" fill="#212121"/>
<path fill-rule="evenodd" clip-rule="evenodd" d="M4.69128 4.30176V24.2488H0V4.30176H4.69128ZM13.0918 24.2488H8.52393V9.05107H12.0733L12.5979 10.9508C13.2564 10.2542 13.9971 9.70541 14.8201 9.30436C15.6432 8.90331 16.5382 8.70278 17.5053 8.70278C19.1719 8.70278 20.4476 9.16716 21.3324 10.0959C22.2171 11.0247 22.6595 12.3861 22.6595 14.1803V24.2488H18.0917V14.6552C18.0917 13.9165 17.9168 13.336 17.567 12.9138C17.2378 12.4706 16.744 12.2489 16.0855 12.2489C15.5917 12.2489 15.067 12.3967 14.5115 12.6922C13.9765 12.9877 13.5033 13.3782 13.0918 13.8637V24.2488Z" fill="#0500FD"/>
</svg>
