<svg width="70" height="20" viewBox="0 0 70 20" fill="none" xmlns="http://www.w3.org/2000/svg">
<path d="M3.12752 2.07235V14.9612H0V2.07235H3.12752Z" fill="#212121"/>
<path d="M8.72784 14.9612H5.68262V5.14113H8.04884L8.39863 6.36865C8.83758 5.91856 9.33139 5.56394 9.88008 5.3048C10.4288 5.04566 11.0255 4.91609 11.6702 4.91609C12.7813 4.91609 13.6317 5.21615 14.2216 5.81627C14.8114 6.41638 15.1063 7.2961 15.1063 8.45542V14.9612H12.0611V8.7623C12.0611 8.28493 11.9445 7.90986 11.7113 7.63708C11.4919 7.35066 11.1626 7.20745 10.7237 7.20745C10.3945 7.20745 10.0447 7.30292 9.67432 7.49387C9.31768 7.68481 9.00218 7.93714 8.72784 8.25083V14.9612Z" fill="#212121"/>
<path d="M23.5881 7.65754C23.2177 7.48023 22.8268 7.34384 22.4152 7.24837C22.0037 7.13925 21.6059 7.0847 21.2219 7.0847C20.8652 7.0847 20.5771 7.14607 20.3577 7.26882C20.1382 7.39157 20.0285 7.56206 20.0285 7.78029C20.0285 8.01215 20.1313 8.20992 20.3371 8.37359C20.5566 8.52361 20.9818 8.68728 21.6128 8.86459L22.2301 9.04872C23.0531 9.29422 23.6772 9.65565 24.1025 10.133C24.5277 10.5967 24.7403 11.1969 24.7403 11.9334C24.7403 12.4244 24.6374 12.8745 24.4317 13.2836C24.2259 13.6792 23.931 14.0201 23.5469 14.3066C23.1766 14.593 22.7239 14.8112 22.1889 14.9612C21.6677 15.1113 21.0847 15.1863 20.44 15.1863C19.7404 15.1863 19.1163 15.1249 18.5676 15.0022C18.0326 14.8794 17.5319 14.7021 17.0655 14.4702L17.724 12.2812C18.1218 12.4858 18.5333 12.6562 18.9585 12.7926C19.3975 12.9154 19.8433 12.9768 20.2959 12.9768C20.8172 12.9768 21.1807 12.9017 21.3865 12.7517C21.6059 12.6017 21.7157 12.4244 21.7157 12.2198C21.7157 12.097 21.6882 11.9948 21.6334 11.9129C21.5922 11.8174 21.5099 11.7288 21.3865 11.647C21.263 11.5651 21.0847 11.4901 20.8515 11.4219C20.632 11.3401 20.344 11.2446 19.9873 11.1355L19.3495 10.9514C18.5401 10.6922 17.9503 10.3376 17.5799 9.88752C17.2096 9.42379 17.0244 8.80322 17.0244 8.02579C17.0244 7.5757 17.1135 7.16653 17.2919 6.79828C17.4702 6.41638 17.724 6.08905 18.0532 5.81627C18.3961 5.52985 18.8076 5.31162 19.2877 5.16159C19.7815 4.99792 20.344 4.91609 20.9749 4.91609C21.6059 4.91609 22.1889 4.97747 22.7239 5.10022C23.2726 5.20933 23.7664 5.36618 24.2053 5.57076L23.5881 7.65754Z" fill="#212121"/>
<path d="M32.9364 14.5316C32.6895 14.7362 32.3534 14.893 31.9282 15.0022C31.5029 15.1249 31.0914 15.1863 30.6936 15.1863C29.9666 15.1863 29.3219 15.0635 28.7595 14.818C28.1971 14.5589 27.717 14.2043 27.3192 13.7542C26.9351 13.3041 26.6402 12.7654 26.4344 12.138C26.2287 11.5106 26.1258 10.815 26.1258 10.0512C26.1258 9.31468 26.2287 8.63273 26.4344 8.00533C26.6402 7.37794 26.942 6.83919 27.3398 6.38911C27.7376 5.92538 28.2177 5.56394 28.7801 5.3048C29.3562 5.04566 30.0078 4.91609 30.7348 4.91609C31.2423 4.91609 31.743 5.00474 32.2368 5.18205C32.7306 5.34572 33.149 5.59804 33.4919 5.93902L33.6565 5.14113H35.9816V19.6667H32.9364V14.5316ZM32.9364 7.90304C32.7855 7.71209 32.5729 7.53478 32.2985 7.37112C32.0379 7.19381 31.7087 7.10516 31.3109 7.10516C31.0228 7.10516 30.7485 7.15971 30.4879 7.26882C30.241 7.37794 30.0146 7.54842 29.8089 7.78029C29.6168 8.01215 29.4659 8.31221 29.3562 8.68046C29.2465 9.03508 29.1916 9.47153 29.1916 9.98981C29.1916 10.9855 29.4042 11.7356 29.8294 12.2403C30.2684 12.7313 30.7897 12.9768 31.3932 12.9768C31.7499 12.9768 32.0585 12.9154 32.3191 12.7926C32.5797 12.6562 32.7855 12.4994 32.9364 12.3221V7.90304Z" fill="#212121"/>
<path d="M44.6906 5.14113H47.7359V14.9612H45.4931L45.1845 13.8974H45.1022C44.965 14.0338 44.8004 14.177 44.6083 14.327C44.4163 14.4771 44.1831 14.6203 43.9088 14.7567C43.6481 14.8794 43.3464 14.9817 43.0034 15.0635C42.6605 15.1454 42.2696 15.1863 41.8306 15.1863C40.7607 15.1863 39.9239 14.893 39.3204 14.3066C38.7168 13.7201 38.415 12.854 38.415 11.7083V5.14113H41.4602V11.4628C41.4602 11.9675 41.5837 12.3425 41.8306 12.588C42.0912 12.8199 42.4204 12.9358 42.8182 12.9358C43.2983 12.9358 43.6893 12.8404 43.9911 12.6494C44.3066 12.4448 44.5398 12.2334 44.6906 12.0152V5.14113Z" fill="#212121"/>
<path d="M50.3148 6.00039C50.8772 5.67306 51.5081 5.41392 52.2077 5.22297C52.921 5.01838 53.648 4.91609 54.3888 4.91609C55.6096 4.91609 56.5904 5.20933 57.3311 5.79581C58.0718 6.38229 58.4422 7.31656 58.4422 8.59863V14.9612H56.1171L55.8496 13.9792H55.7673C55.493 14.3338 55.1089 14.6271 54.6151 14.8589C54.135 15.0772 53.5657 15.1863 52.9073 15.1863C52.3449 15.1863 51.8511 15.1045 51.4258 14.9408C51.0143 14.7771 50.6714 14.5589 50.397 14.2861C50.1227 14.0133 49.9101 13.6928 49.7592 13.3246C49.622 12.9427 49.5534 12.5403 49.5534 12.1175C49.5534 11.5447 49.6769 11.0537 49.9238 10.6445C50.1844 10.2353 50.5274 9.90116 50.9526 9.64202C51.3915 9.38287 51.8991 9.19193 52.4752 9.06918C53.065 8.94642 53.6892 8.88505 54.3476 8.88505H55.3764V8.35313C55.3764 7.98487 55.2461 7.70527 54.9855 7.51433C54.7248 7.30974 54.3545 7.20745 53.8744 7.20745C53.4628 7.20745 53.0582 7.26882 52.6604 7.39158C52.2626 7.51433 51.8236 7.71209 51.3435 7.98487L50.3148 6.00039ZM55.397 10.7263L54.718 10.7468C54.3339 10.7604 54.0115 10.8013 53.7509 10.8695C53.4903 10.9377 53.2777 11.0264 53.1131 11.1355C52.9622 11.231 52.8524 11.3537 52.7838 11.5037C52.7153 11.6401 52.681 11.7833 52.681 11.9334C52.681 12.3562 52.8044 12.6494 53.0513 12.8131C53.312 12.9631 53.6069 13.0381 53.9361 13.0381C54.2653 13.0381 54.5602 12.9427 54.8209 12.7517C55.0952 12.5608 55.2872 12.3494 55.397 12.1175V10.7263Z" fill="#212121"/>
<path d="M66.9548 0.333374H70V14.9612H67.9013L67.5926 13.8974H67.4898C67.2977 14.1975 66.9616 14.4907 66.4815 14.7771C66.0152 15.0499 65.3979 15.1863 64.6297 15.1863C63.985 15.1863 63.3883 15.0704 62.8396 14.8385C62.2909 14.593 61.8177 14.252 61.4199 13.8156C61.0221 13.3655 60.7066 12.8267 60.4734 12.1993C60.2539 11.5583 60.1442 10.8423 60.1442 10.0512C60.1442 9.27376 60.2471 8.57135 60.4528 7.94396C60.6586 7.30292 60.9535 6.76418 61.3376 6.32773C61.7354 5.87764 62.2224 5.52985 62.7985 5.28434C63.3746 5.03884 64.0262 4.91609 64.7532 4.91609C65.2058 4.91609 65.6311 4.98428 66.0289 5.12068C66.4404 5.24343 66.749 5.40028 66.9548 5.59122V0.333374ZM66.9548 7.80075C66.8313 7.63708 66.6393 7.48023 66.3787 7.3302C66.118 7.18017 65.83 7.10516 65.5145 7.10516C65.199 7.10516 64.9041 7.15971 64.6297 7.26882C64.3554 7.3643 64.1085 7.52797 63.889 7.75983C63.6832 7.99169 63.5186 8.29175 63.3952 8.66001C63.2717 9.01462 63.21 9.45789 63.21 9.98981C63.21 11.0127 63.4089 11.7697 63.8067 12.2607C64.2182 12.7381 64.7463 12.9768 65.391 12.9768C65.7888 12.9768 66.118 12.8745 66.3787 12.6699C66.653 12.4653 66.845 12.2471 66.9548 12.0152V7.80075Z" fill="#212121"/>
<path fill-rule="evenodd" clip-rule="evenodd" d="M3.12752 1.86792V15.166H0V1.86792H3.12752ZM8.72784 15.166H5.68262V5.03413H8.04884L8.39863 6.30061C8.83758 5.83623 9.33139 5.47036 9.88008 5.20299C10.4288 4.93562 11.0255 4.80194 11.6702 4.80194C12.7813 4.80194 13.6317 5.11152 14.2216 5.73069C14.8114 6.34986 15.1063 7.2575 15.1063 8.45363V15.166H12.0611V8.77025C12.0611 8.27773 11.9445 7.89074 11.7113 7.6093C11.4919 7.31379 11.1626 7.16604 10.7237 7.16604C10.3945 7.16604 10.0447 7.26454 9.67432 7.46155C9.31768 7.65856 9.00218 7.91889 8.72784 8.24255V15.166Z" fill="#0500FD"/>
</svg>
