<svg width="22" height="22" viewBox="0 0 22 22" fill="none" xmlns="http://www.w3.org/2000/svg">
<path d="M12.5857 19.25C12.4246 19.5278 12.1933 19.7584 11.9149 19.9187C11.6366 20.079 11.3211 20.1634 10.9999 20.1634C10.6787 20.1634 10.3632 20.079 10.0849 19.9187C9.80654 19.7584 9.57522 19.5278 9.41406 19.25" stroke="currentColor" stroke-linecap="round" stroke-linejoin="round"/>
<path d="M17.0776 11.9167C16.6698 10.4238 16.4754 8.88075 16.5001 7.33337" stroke="currentColor" stroke-linecap="round" stroke-linejoin="round"/>
<path d="M5.73833 5.73828C5.57908 6.25493 5.49873 6.79265 5.5 7.33328C5.5 13.7499 2.75 15.5833 2.75 15.5833H15.5833" stroke="currentColor" stroke-linecap="round" stroke-linejoin="round"/>
<path d="M16.4998 7.33336C16.5012 6.337 16.232 5.35895 15.7209 4.50369C15.2098 3.64843 14.4759 2.94808 13.5977 2.47744C12.7195 2.00681 11.73 1.78358 10.7348 1.83159C9.73955 1.87959 8.77609 2.19704 7.94727 2.75002" stroke="currentColor" stroke-linecap="round" stroke-linejoin="round"/>
<path d="M0.916504 0.916626L21.0832 21.0833" stroke="currentColor" stroke-linecap="round" stroke-linejoin="round"/>
</svg>
