<svg width="22" height="22" viewBox="0 0 22 22" fill="none" xmlns="http://www.w3.org/2000/svg">
<path d="M14.6665 3.66663H16.4998C16.9861 3.66663 17.4524 3.85978 17.7962 4.2036C18.14 4.54741 18.3332 5.01373 18.3332 5.49996V18.3333C18.3332 18.8195 18.14 19.2858 17.7962 19.6297C17.4524 19.9735 16.9861 20.1666 16.4998 20.1666H5.49984C5.01361 20.1666 4.54729 19.9735 4.20347 19.6297C3.85966 19.2858 3.6665 18.8195 3.6665 18.3333V5.49996C3.6665 5.01373 3.85966 4.54741 4.20347 4.2036C4.54729 3.85978 5.01361 3.66663 5.49984 3.66663H7.33317" stroke="currentColor" stroke-linecap="round" stroke-linejoin="round"/>
<path d="M13.7502 1.83337H8.25016C7.7439 1.83337 7.3335 2.24378 7.3335 2.75004V4.58337C7.3335 5.08963 7.7439 5.50004 8.25016 5.50004H13.7502C14.2564 5.50004 14.6668 5.08963 14.6668 4.58337V2.75004C14.6668 2.24378 14.2564 1.83337 13.7502 1.83337Z" stroke="currentColor" stroke-linecap="round" stroke-linejoin="round"/>
</svg>
