<svg width="22" height="22" viewBox="0 0 22 22" fill="none" xmlns="http://www.w3.org/2000/svg">
  <circle cx="11" cy="11" r="11" fill="currentColor"/>
  <path d="M7.16393 7.16393C7.21577 7.11197 7.27734 7.07074 7.34513 7.04261C7.41293 7.01448 7.4856 7 7.559 7C7.6324 7 7.70507 7.01448 7.77286 7.04261C7.84065 7.07074 7.90223 7.11197 7.95406 7.16393L10.907 10.118L13.8599 7.16393C13.9118 7.11205 13.9734 7.0709 14.0412 7.04282C14.109 7.01474 14.1816 7.00029 14.255 7.00029C14.3284 7.00029 14.401 7.01474 14.4688 7.04282C14.5366 7.0709 14.5982 7.11205 14.6501 7.16393C14.702 7.21581 14.7431 7.27741 14.7712 7.34519C14.7993 7.41298 14.8137 7.48563 14.8137 7.559C14.8137 7.63237 14.7993 7.70502 14.7712 7.77281C14.7431 7.84059 14.702 7.90218 14.6501 7.95406L11.696 10.907L14.6501 13.8599C14.702 13.9118 14.7431 13.9734 14.7712 14.0412C14.7993 14.109 14.8137 14.1816 14.8137 14.255C14.8137 14.3284 14.7993 14.401 14.7712 14.4688C14.7431 14.5366 14.702 14.5982 14.6501 14.6501C14.5982 14.702 14.5366 14.7431 14.4688 14.7712C14.401 14.7993 14.3284 14.8137 14.255 14.8137C14.1816 14.8137 14.109 14.7993 14.0412 14.7712C13.9734 14.7431 13.9118 14.702 13.8599 14.6501L10.907 11.696L7.95406 14.6501C7.90218 14.702 7.84059 14.7431 7.77281 14.7712C7.70502 14.7993 7.63237 14.8137 7.559 14.8137C7.48563 14.8137 7.41298 14.7993 7.34519 14.7712C7.27741 14.7431 7.21581 14.702 7.16393 14.6501C7.11205 14.5982 7.0709 14.5366 7.04282 14.4688C7.01474 14.401 7.00029 14.3284 7.00029 14.255C7.00029 14.1816 7.01474 14.109 7.04282 14.0412C7.0709 13.9734 7.11205 13.9118 7.16393 13.8599L10.118 10.907L7.16393 7.95406C7.11197 7.90223 7.07074 7.84065 7.04261 7.77286C7.01448 7.70507 7 7.6324 7 7.559C7 7.4856 7.01448 7.41293 7.04261 7.34513C7.07074 7.27734 7.11197 7.21577 7.16393 7.16393Z" fill="#6B6B6B"/>
</svg>
