<svg width="22" height="22" viewBox="0 0 22 22" fill="none" xmlns="http://www.w3.org/2000/svg">
<path d="M4.5835 15.5833H3.66683C3.1806 15.5833 2.71428 15.3902 2.37047 15.0464C2.02665 14.7025 1.8335 14.2362 1.8335 13.75V4.58333C1.8335 4.0971 2.02665 3.63079 2.37047 3.28697C2.71428 2.94315 3.1806 2.75 3.66683 2.75H18.3335C18.8197 2.75 19.286 2.94315 19.6299 3.28697C19.9737 3.63079 20.1668 4.0971 20.1668 4.58333V13.75C20.1668 14.2362 19.9737 14.7025 19.6299 15.0464C19.286 15.3902 18.8197 15.5833 18.3335 15.5833H17.4168" stroke="currentColor" stroke-linecap="round" stroke-linejoin="round"/>
<rect x="7.5" y="16.5" width="7" height="3" rx="0.5" stroke="currentColor"/>
</svg>
