<svg width="22" height="22" viewBox="0 0 22 22" fill="none" xmlns="http://www.w3.org/2000/svg">
<path d="M2 11.7222C1.17157 11.7222 0.5 11.0506 0.5 10.2222V2C0.5 1.17157 1.17157 0.5 2 0.5H7.77778C8.60621 0.5 9.27778 1.17157 9.27778 2V10.2222C9.27778 11.0506 8.6062 11.7222 7.77778 11.7222H2ZM2 21.5C1.17157 21.5 0.5 20.8284 0.5 20V16.6667C0.5 15.8382 1.17157 15.1667 2 15.1667H7.77778C8.6062 15.1667 9.27778 15.8382 9.27778 16.6667V20C9.27778 20.8284 8.6062 21.5 7.77778 21.5H2ZM14.2222 21.5C13.3938 21.5 12.7222 20.8284 12.7222 20V11.7778C12.7222 10.9494 13.3938 10.2778 14.2222 10.2778H20C20.8284 10.2778 21.5 10.9494 21.5 11.7778V20C21.5 20.8284 20.8284 21.5 20 21.5H14.2222ZM12.7222 2C12.7222 1.17157 13.3938 0.5 14.2222 0.5H20C20.8284 0.5 21.5 1.17157 21.5 2V5.33333C21.5 6.16176 20.8284 6.83333 20 6.83333H14.2222C13.3938 6.83333 12.7222 6.16176 12.7222 5.33333V2Z" stroke="currentColor"/>
</svg>
