<svg width="64" height="56" viewBox="0 0 64 56" fill="none" xmlns="http://www.w3.org/2000/svg">
<path fill-rule="evenodd" clip-rule="evenodd" d="M62.3414 4.25511C62.88 4.31937 63.2839 4.51214 63.6205 4.89769C63.8898 5.28325 64.0918 5.73306 63.9571 6.18287L60.4563 44.1597C60.389 44.6738 60.187 45.0593 59.7831 45.3806C59.4465 45.6377 58.9752 45.7662 58.5713 45.7662H58.4366L54.8012 45.4449V50.2643C54.8012 51.2282 53.9933 51.9993 52.9834 51.9993H1.81773C0.80788 51.9993 0 51.2282 0 50.2643V12.0947C0 11.1308 0.80788 10.3597 1.81773 10.3597H8.55006L9.35794 1.6205C9.49259 0.656625 10.3678 -0.114478 11.3776 0.0140388L62.3414 4.25511ZM3.77011 48.5293H51.233V13.8939H3.77011V48.5293ZM54.8685 41.9749L57.0228 42.1677L60.187 7.72507L12.9261 3.74104L12.3202 10.4239H53.0508C54.0606 10.4239 54.8685 11.195 54.8685 12.1589V41.9749ZM13.8008 27.1311C16.2547 27.1311 18.2441 25.2323 18.2441 22.89C18.2441 20.5477 16.2547 18.6489 13.8008 18.6489C11.3468 18.6489 9.35742 20.5477 9.35742 22.89C9.35742 25.2323 11.3468 27.1311 13.8008 27.1311ZM47.53 33.814L38.6433 24.5608C38.3067 24.2395 37.6334 24.2395 37.2968 24.5608L21.8798 40.5612L14.5415 32.9144C14.3396 32.7216 14.1376 32.6574 13.8683 32.6574C13.599 32.6574 13.397 32.7859 13.1951 32.9144L7.40527 38.8905V45.0593H47.53V33.814Z" fill="currentColor"/>
</svg>
