<svg width="18" height="18" viewBox="0 0 18 18" fill="none" xmlns="http://www.w3.org/2000/svg">
<path d="M8.52447 1.46353C8.67415 1.00287 9.32585 1.00287 9.47553 1.46353L10.9084 5.87336C10.9753 6.07937 11.1673 6.21885 11.3839 6.21885H16.0207C16.505 6.21885 16.7064 6.83865 16.3146 7.12336L12.5633 9.84878C12.3881 9.9761 12.3148 10.2018 12.3817 10.4078L13.8145 14.8176C13.9642 15.2783 13.437 15.6613 13.0451 15.3766L9.29389 12.6512C9.11865 12.5239 8.88135 12.5239 8.70611 12.6512L4.95488 15.3766C4.56303 15.6613 4.03578 15.2783 4.18546 14.8176L5.6183 10.4078C5.68524 10.2018 5.61191 9.9761 5.43667 9.84878L1.68544 7.12336C1.29358 6.83866 1.49497 6.21885 1.97933 6.21885H6.6161C6.83272 6.21885 7.02469 6.07937 7.09163 5.87336L8.52447 1.46353Z" fill="#EBEBEB"/>
<path d="M4.9558 15.3766L8.79479 12.5875C8.92428 12.4934 9.00091 12.343 9.00089 12.1829L9 1C9.00016 0.820086 8.74749 0.779949 8.6919 0.951057L7.09255 5.87336C7.02561 6.07937 6.83363 6.21885 6.61702 6.21885H1.98025C1.49589 6.21885 1.2945 6.83866 1.68636 7.12336L5.43758 9.84878C5.61282 9.9761 5.68615 10.2018 5.61922 10.4078L4.18638 14.8176C4.0367 15.2783 4.56394 15.6613 4.9558 15.3766Z" fill="currentColor"/>
</svg>
